<?xml version="1.0" standalone="no"?>
<!DOCTYPE svg PUBLIC "-//W3C//DTD SVG 20010904//EN"
 "http://www.w3.org/TR/2001/REC-SVG-20010904/DTD/svg10.dtd">
<svg version="1.0" xmlns="http://www.w3.org/2000/svg"
 width="260.000000pt" height="260.000000pt" viewBox="0 0 260.000000 260.000000"
 preserveAspectRatio="xMidYMid meet">
<metadata>
Created by potrace 1.11, written by Peter Selinger 2001-2013
</metadata>
<g transform="translate(0.000000,260.000000) scale(0.100000,-0.100000)"
fill="#000000" stroke="none">
<path d="M350 1962 c0 -366 -2 -378 -59 -402 -35 -14 -84 -9 -135 15 -20 10
-38 16 -40 14 -2 -2 -25 -44 -51 -94 -26 -49 -51 -94 -56 -100 -18 -18 -8 -34
36 -55 78 -38 143 -50 250 -47 84 3 110 8 160 31 105 48 162 123 184 241 13
71 17 76 26 33 11 -47 80 -143 138 -188 56 -45 138 -86 194 -98 l37 -8 -29
-11 c-116 -43 -146 -58 -197 -98 -177 -141 -232 -409 -127 -621 31 -62 106
-144 169 -184 154 -99 396 -111 553 -28 53 29 167 136 167 159 0 5 3 9 8 9 4
0 6 -51 5 -112 l-2 -113 147 0 147 0 3 154 c2 148 3 154 29 187 l26 35 53 -83
c29 -46 83 -130 120 -188 l67 -105 179 0 c98 0 178 2 178 6 0 3 -26 42 -58 85
-33 43 -123 166 -201 272 l-142 193 23 32 c12 18 87 118 165 224 79 105 143
193 143 195 0 2 -40 3 -90 3 -49 0 -90 2 -90 5 0 3 27 18 60 34 62 31 139 101
186 170 40 59 66 142 71 231 12 192 -63 351 -213 450 -132 88 -282 110 -477
70 -91 -18 -214 -101 -273 -182 -21 -29 -39 -53 -40 -53 -1 0 -13 19 -27 43
-59 99 -173 178 -294 201 -143 27 -312 -3 -425 -76 -64 -40 -142 -128 -170
-189 -13 -27 -25 -49 -28 -49 -3 0 -4 72 -2 160 2 88 -1 161 -5 161 -4 1 -72
2 -150 3 l-143 2 0 -334z m862 64 c40 -7 112 -70 128 -112 10 -24 11 -25 37
-10 44 25 186 87 190 83 1 -2 -4 -28 -13 -58 -26 -85 -20 -229 13 -315 8 -22
-10 -17 -114 32 -89 42 -99 44 -108 28 -21 -36 -69 -86 -97 -100 -72 -37 -183
-20 -247 39 -59 54 -86 168 -61 257 20 74 93 142 167 159 39 8 43 8 105 -3z
m958 -14 c62 -25 115 -104 127 -187 26 -195 -166 -335 -338 -246 -119 62 -157
220 -82 349 54 94 181 131 293 84z m-504 -559 c21 -22 63 -57 92 -76 l53 -35
-93 0 c-51 0 -103 0 -115 -1 -21 -1 -22 -4 -20 -126 1 -69 -1 -125 -5 -125 -5
0 -8 4 -8 9 0 5 -28 38 -63 73 -58 58 -155 118 -191 118 -8 0 -18 5 -21 10 -3
6 2 10 13 10 64 0 215 114 262 198 l23 42 17 -28 c9 -15 34 -46 56 -69z m374
-162 c36 -1 66 -4 67 -5 2 -2 -43 -69 -210 -306 -16 -24 -17 -18 -17 157 l0
181 48 -12 c26 -7 76 -14 112 -15z m-825 -252 c38 -11 107 -70 130 -112 9 -17
18 -15 119 33 59 28 111 49 113 46 4 -4 7 -277 4 -378 l-1 -27 -106 49 c-58
28 -111 50 -118 50 -6 0 -20 -17 -31 -37 -28 -53 -99 -94 -163 -96 -67 -1
-150 40 -186 91 -130 188 28 439 239 381z"/>
</g>
</svg>
