<svg xmlns="http://www.w3.org/2000/svg" viewBox="0 0 380 313.01"><title>award-webaward</title><path d="M196.43 194.29c-20.4 0-25.41-4.59-31.49-26.09L127.73 37.73a51.32 51.32 0 0 1-2.14-13.05c0-14.1 10.38-24.33 24-24.33 12.53 0 21.11 7.41 24.69 22.92l26.48 110.37L222.19 26.8C226.49 6 233.64.35 252.61.35s26.12 5.29 30.78 26.45l22.9 106.84 26.48-111.43C336.34 7.76 345.29 0 356.39 0 371.05 0 380 8.46 380 22.57c0 3.88-1.07 8.46-2.51 13.75L339.92 168.2c-6.44 22.21-12.16 26.09-31.13 26.09-19.33 0-25.76-4.94-30.78-26.09L252.25 57.12 227.92 168.2c-4.65 21.86-10.74 26.09-31.49 26.09z"/><path fill="#9a4709" d="M227.45 312.83v.17z"/><path d="M151.3 218a7.88 7.88 0 0 1-.2-1.77 2.83 2.83 0 0 1 3.09-3c2.09 0 3 1.42 3.28 3.53L160 233.2h.1l2.54-15.07c.55-3.34 1.2-4.91 3.29-4.91 1.2 0 2.44.64 2.84 2.75l3.38 17.23h.1l2.49-16.74c.35-2.21 1.45-3.24 3.25-3.24a2.78 2.78 0 0 1 2.83 3 6.94 6.94 0 0 1-.2 1.57l-4.09 19.54c-.5 2.5-1.2 3.73-4.08 3.73s-3.79-1.52-4.33-4.47L166 225.53h-.1l-2.3 12.23a3.66 3.66 0 0 1-4 3.29c-2.49 0-3.54-1.18-4.13-4zm39.02 5.72v-2.21c0-2 .65-3.58 2.64-3.58s2.64 1.57 2.64 3.58v2.21zm-6.38 6.19c0 6.77 1 11.14 9.26 11.14 4.94 0 8.28-2.89 8.28-7.71 0-2.36-1.3-2.94-3.09-2.94s-2.9.59-3 3.19a2.67 2.67 0 0 1-2.34 2.75c-2.49 0-2.74-2.5-2.74-5.69v-2.7h8c3.09 0 3.38-1.87 3.38-4.27 0-7-2.14-10.46-8.47-10.46-8.27 0-9.26 4.37-9.26 11.14zm28.8-5.3c0-5.35 1.55-6.43 3-6.43 2 0 2.59 1.62 2.59 7.46v3.48c0 4.43-.3 7-2.54 7-2.39 0-3-2.7-3-6.48zm-6.08 12.86c0 2.46 1.2 3.58 3 3.58a3 3 0 0 0 3-3.09h.1a5.74 5.74 0 0 0 5.38 3.09c5.48 0 6.47-4.91 6.47-10.36v-7.12c0-5.46-1-10.36-6.47-10.36a6 6 0 0 0-5.38 3.09h-.1V208c0-2.46-1.2-3.58-3-3.58s-3 1.13-3 3.58zm34.99-6.09c0 2.8-1.19 5-3.19 5-1.29 0-2.14-1.13-2.14-3.14 0-2.26.5-3.19 3.19-5.05l2.14-1.48zm6.08-10.31c0-4.32-.9-7.86-9-7.86-4.68 0-8.47 2.46-8.47 7.07 0 1.82 1.84 2.46 3.19 2.46 1.6 0 2.74-.75 2.89-1.92.25-2.11.9-3.14 3-3.14a2.38 2.38 0 0 1 2.34 2.65 3.08 3.08 0 0 1-1.94 2.8l-5.43 2.8c-3.19 1.67-4.33 4-4.33 8 0 5 2.7 7.12 6.28 7.12a5.78 5.78 0 0 0 5.53-3.34h.1c0 2.61 1.54 3.39 3.19 3.39 1.94 0 3-.78 3-2.36 0-.83-.35-2.25-.35-4zm4.39-3.07a7.39 7.39 0 0 1-.2-1.77 2.83 2.83 0 0 1 3.08-3c2.1 0 3 1.42 3.29 3.53l2.49 16.45h.1l2.54-15.07c.55-3.34 1.19-4.91 3.28-4.91 1.2 0 2.44.64 2.84 2.75l3.39 17.23h.1l2.49-16.74c.35-2.21 1.45-3.24 3.24-3.24a2.78 2.78 0 0 1 2.84 3 7.16 7.16 0 0 1-.2 1.57l-4.09 19.54c-.5 2.5-1.2 3.73-4.09 3.73s-3.79-1.52-4.34-4.47l-2.14-11.05h-.1l-2.29 12.23a3.66 3.66 0 0 1-4 3.29c-2.49 0-3.53-1.18-4.13-4zm50.03 16.72c0 1.72.35 3.14.35 4 0 1.58-1.09 2.36-3 2.36-1.64 0-3.19-.78-3.19-3.39h-.1a5.78 5.78 0 0 1-5.53 3.34c-3.58 0-6.28-2.11-6.28-7.12 0-4 1.15-6.33 4.33-8l5.43-2.8a3.08 3.08 0 0 0 1.94-2.8 2.38 2.38 0 0 0-2.34-2.65c-2.1 0-2.74 1-3 3.14-.15 1.17-1.29 1.92-2.89 1.92-1.35 0-3.19-.64-3.19-2.46 0-4.61 3.79-7.07 8.47-7.07 8.12 0 9 3.53 9 7.86zm-6.08-8.05l-2.14 1.48c-2.69 1.86-3.19 2.79-3.19 5.05 0 2 .85 3.14 2.14 3.14 2 0 3.19-2.16 3.19-5zm11.66-10.21c0-2 .84-3.24 2.84-3.24s2.84 1.28 2.84 3.24V219h.1c.89-3.33 2.44-5.74 4.53-5.74 1.64 0 3 1.18 3 3.88 0 1.82-.95 3.58-3.79 3.58a3.34 3.34 0 0 0-3.43 3.64v13.15c0 2.46-1.19 3.58-3 3.58s-3-1.13-3-3.58zm22.33 9.18c0-5.84.55-7.46 2.6-7.46 1.44 0 3 1.08 3 6.43v5c0 3.78-.65 6.48-3 6.48s-2.54-2.55-2.54-7zm-6.37 5.06c0 5.45 1 10.36 6.48 10.36a5.74 5.74 0 0 0 5.38-3.09h.1a3 3 0 0 0 3 3.09c1.85 0 3-1.13 3-3.58V208c0-2.46-1.2-3.58-3-3.58s-3 1.13-3 3.58v8.3h-.1a6 6 0 0 0-5.38-3.09c-5.48 0-6.48 4.91-6.48 10.36z"/><path d="M299.17 259.43v24.74a18.32 18.32 0 0 1-5.47 13 19.69 19.69 0 0 1-3.92 3l-.16.09a20.59 20.59 0 0 1-10.29 2.76H27.23a20.76 20.76 0 0 1-2.93-.24c-9.66-1.36-16.95-9.38-16.95-18.67V68.88a18.33 18.33 0 0 1 5.47-13 19.9 19.9 0 0 1 4.07-3.11l.1-.06A20.57 20.57 0 0 1 27.23 50h85.61l-2.1-7.35H27.23a27.81 27.81 0 0 0-14 3.75 27.23 27.23 0 0 0-5.59 4.28A25.67 25.67 0 0 0 0 68.88v215.3c0 13.2 10.12 24.09 23.28 25.94a28.14 28.14 0 0 0 4 .31h252.01a27.83 27.83 0 0 0 14-3.75 27.13 27.13 0 0 0 5.59-4.28 25.65 25.65 0 0 0 7.62-18.19v-24.78z"/></svg>