<svg xmlns="http://www.w3.org/2000/svg" viewBox="0 0 380 216"><title>award-webby</title><path d="M0 118.61v16.83c130.51-7.74 33.45-11.77 0-16.83zm0 27.81V163l1.09.27c99.43-9.2 70.91-12.54-1.09-16.85z"/><path d="M0 0v54.35c81.83-2.76 82.23-7.39 39.8-13l7.63-9.25c52.39 8 49.07 21.17 11.45 27.75 12.61 4.42 57.29 12.62 3.27 28.84 8.79 2.38 58.37 14.63-3.27 25.57 9.77 4.4 61.58 10.71 2.18 26.66 15.38 2.52 54.91 10.93 2.73 27.75 19.73 2.06 22 2.74 27.26 12V216h24V0z"/><path d="M0 93v16.9c24.55-4.81 136.6-6.77 0-16.9zm0-28.71v17.87C76.71 78 102.63 72.7 0 64.29zm143.2-6.69h-13.09V55h29v2.6H146v34.9h-2.8zm22.96-2.6H169v17.37h24V55h2.79v37.5H193V74.94h-24V92.5h-2.79zm39.37 0h26.71v2.6h-23.92v14.72h21.51v2.57h-21.51v15h24.19v2.61h-27zm-73.47 59h12.46l7.42 24.57 8.21-24.69h10.15l8.2 24.69 7.41-24.57h12.22l-14.22 42.77h-10.28l-8.51-24.45-8.57 24.45h-10.27zm66.07 20.92v-.16c0-12.76 9.15-22.86 22.1-22.86 15.06 0 22 11.07 22 23.91 0 1 0 2.1-.08 3.15h-29.3c1.21 4.76 4.69 7.19 9.47 7.19 3.73 0 6.56-1.37 9.72-4.44l8.5 7c-4.21 5.33-10.28 8.88-18.94 8.88-13.75.03-23.47-9.18-23.47-22.67zm29.78-3.8c-.57-4.85-3.48-7.92-7.69-7.92-4.05 0-6.8 3.07-7.61 7.92zm22.7-17.12h21.82c5.35 0 9.12 1.33 11.61 3.76a9.55 9.55 0 0 1 2.73 6.92v.12c0 4.91-2.8 7.83-6.57 9.46 5.17 1.7 8.45 4.61 8.45 10.37v.12c0 7.28-6 11.71-16.11 11.71h-21.93zm24.56 13.1c0-2.37-1.88-3.64-5.35-3.64h-7.72V131h7.42c3.59 0 5.65-1.21 5.65-3.7zm-4.07 12.07h-9V147h9.12c3.65 0 5.65-1.39 5.65-3.88V143c0-2.27-1.87-3.79-5.78-3.79zM297.75 114h21.82c5.35 0 9.12 1.33 11.61 3.76a9.55 9.55 0 0 1 2.73 6.92v.12c0 4.91-2.8 7.83-6.57 9.46 5.17 1.7 8.45 4.61 8.45 10.37v.12c0 7.28-6 11.71-16.11 11.71h-21.93zm24.56 13.1c0-2.37-1.88-3.64-5.35-3.64h-7.72V131h7.42c3.58 0 5.65-1.21 5.65-3.7zm-4.07 12.07h-9V147h9.12c3.65 0 5.65-1.39 5.65-3.88V143c-.01-2.27-1.82-3.79-5.77-3.79zm33.76 1.44L335.8 114h13.44l8.76 15.51 8.81-15.51H380l-16.18 26.39v16.08H352zm-200.69 34.04H154l17.49 37.74h-3.06l-4.77-10.49h-22.17l-4.77 10.49h-2.89zm11.16 24.73l-9.87-21.68-9.93 21.68zm8.79-24.46h3.11l11.8 33.35 11-33.46h2.14l11 33.46 11.8-33.35H225l-13.62 37.74h-2.25l-11-32.55-11 32.55h-2.25zm71.92-.24h2.68l17.49 37.74h-3.05l-4.77-10.49h-22.16l-4.77 10.49h-2.9zm11.16 24.73l-9.87-21.68-9.92 21.68zm15.47-24.49h15.77c4.61 0 8.32 1.45 10.57 3.69a9.87 9.87 0 0 1 2.84 7v.11c0 6.26-4.67 9.85-11 10.71l12.39 16h-3.54l-12-15.52H272.6v15.52h-2.79zm15.45 19.43c6.28 0 10.94-3.16 10.94-8.56v-.11c0-5-4-8.19-10.78-8.19H272.6v16.86zm22.02-19.43h12.5c11.8 0 20 8.08 20 18.63v.1c0 10.55-8.15 18.74-20 18.74h-12.5zm2.79 2.57v32.34h9.71c10.46 0 17.06-7.12 17.06-16.06v-.11c0-8.88-6.6-16.17-17.06-16.17zm34.81 29.44l1.82-2.09c4.13 3.8 7.94 5.57 13.47 5.57s9.49-3.16 9.49-7.44v-.11c0-4-2.09-6.26-10.62-8-9-1.82-12.66-4.87-12.66-10.55v-.11c0-5.57 5.1-9.85 12.07-9.85a18.73 18.73 0 0 1 12.87 4.55l-1.77 2.19a16.19 16.19 0 0 0-11.21-4.23c-5.52 0-9.17 3.16-9.17 7.07v.11c0 4 2 6.37 10.94 8.19 8.69 1.77 12.34 4.87 12.34 10.33v.11c0 6-5.2 10.22-12.45 10.22-6 .04-10.61-1.94-15.12-5.96z"/></svg>