<svg xmlns="http://www.w3.org/2000/svg" viewBox="0 0 380 240"><title>aaa-awards</title><path fill="#231f20" d="M13.81 40.16h25.93l7 17.84h4.76L29.15 1.33h-4.44L1.92 58H6.7zm1.5-4L27 6.45l11.25 29.73zM59.7 8.22L80.44 58h4.13l20.5-49.75V58h4.46V1.33h-5.78L82.5 52.51 61.03 1.33h-5.75V58h4.42V8.22M158.71 54h-34.38V30.58h31.95v-3.99h-31.95V5.32h33.98V1.33h-38.44V58h38.84v-4m12.22-21.33h19.3c10 0 12 4.71 12.56 9.29a49.32 49.32 0 0 1 .19 5.95c0 3.73-.05 7.26 1.36 9.82l.15.27h5.17l-.63-.83c-1.45-1.89-1.5-5.42-1.56-9.16 0-1.81-.05-3.68-.22-5.51-.45-4.78-1.92-10.33-9.12-12 6.35-1.91 10.22-7.21 10.22-14.28 0-9.72-6.27-14.85-18.13-14.85h-23.76V58h4.47zm0-27.36h19.3c4.1 0 13.63 1.09 13.63 11.1 0 10.68-8.54 12.28-13.63 12.28h-19.3zm46.89-3.98h4.46V58h-4.46zm39.73 58c12.51 0 22.53-9.86 23.81-23.44l.05-.56h-4.49v.49c-.64 10.76-9.32 19.52-19.34 19.52C244.27 55.33 235 44.78 235 29.67S244.27 4 257.55 4c9.64 0 17.05 5.83 18.45 14.53V19h4.42v-.56c0-.19-2.53-18.4-22.87-18.4-16.16 0-27 11.92-27 29.67s10.84 29.62 27 29.62zm35.74-19.17h25.93l7 17.84H331L308.64 1.33h-4.46L281.43 58h4.76zm1.5-4l11.7-29.77 11.27 29.77zm44.95-28.67L374.48 58h4.85V1.33h-4.46v50.14L340.36 1.33h-5.06V58h4.44V7.49M3.11 139h10.53L16 128.39h13.27L31.6 139h10.52L28.87 88.89H16.39zm19.44-41.4h.13l4.83 22.52h-9.8zM46 88.89V139h15.9c13.39 0 17.21-8 17.21-25.78 0-14.71-2.52-24.35-16.58-24.35zm23 24.63c0 13.63-1.4 18-8.43 18h-4.48V96.33h4.27c7.71 0 8.64 5.83 8.64 17.19zm30.33 12.45l-7.09-37.08H81.43l11.52 50.13h12.97l11.53-50.13h-10.47l-7.44 37.08h-.21m51.25-28.8v-8.28H122.6v50.13h28.69v-8.29h-18.6v-13.48h16.86v-8.3h-16.86V97.17h17.89m39.19 4.63c0-8.56-5.05-12.91-13.32-12.91h-18.66V139h10.11v-21.19h5.41c4.07 0 5.81 2.38 5.94 6.32l.29 9.63a10 10 0 0 0 1.25 5.27h11v-.43c-1.91-1-2.2-3.73-2.27-9-.12-10.6-1.2-14.39-8.06-15.3v-.15c5.67-1.15 8.31-5.68 8.31-12.35zm-17.67 9h-4.2V96.33h4.75c4.58 0 7 2.32 7 6.94.01 5.41-2.72 7.53-7.55 7.53zm42.56 28.22V97.17h10.94v-8.28h-32v8.28h10.95v41.85h10.11m17.19-50.13h10.11v50.13h-10.11zm16.21 34.46v2c0 9.29 4.5 14.62 15.92 14.62 11 0 17.41-4.79 17.41-15.37 0-6.1-2-10-9.53-13.27L264 108c-4.28-1.83-5.19-3.74-5.19-6.81s1.19-5.82 5.77-5.82c3.86 0 5.46 2.7 5.46 7.44h9.67v-1.4c0-9.63-6.51-13.48-15.5-13.48-9.54 0-15.5 5-15.5 14.74 0 8.35 4.15 12.07 13.11 15.15 6.68 2.32 9 4 9 8.57a5.76 5.76 0 0 1-6 6.15c-5.35 0-6.67-3-6.67-7.72v-1.46zm38.9-34.46h10.09v50.13h-10.09zm42.71 34.32l-12.19-34.32h-11.67v50.13h9.26v-35.1h.13l12.35 35.1h11.51V88.89h-9.27v34.32h-.12M363.66 112v7.43h6.67v5.15c0 5.41-3.86 8-6.26 8-5.81 0-7-7.57-7-19.63 0-12.51 2-17.54 6.9-17.54 4 0 5.74 4.69 5.74 8.42h9.69c0-10.2-4.51-15.87-15.58-15.87-12.93 0-16.85 8.63-16.85 25.46 0 17.36 2.45 26.61 14.88 26.61 4.71 0 8.14-1.68 10.53-5.61h.12V139h7.5v-27zM31 170.8L3.83 238.39h4.45l8.59-21.68h32.38l8.52 21.68h4.45L35.53 170.8zm-12.8 42.31l15-38.23h.2l14.48 38.23zm121.61-42.31l-17.3 63.13h-.19l-18.16-63.13h-5.21l-17.86 63.13h-.21l-17.6-63.13h-4.27l19.49 67.59h4.63l18.27-63.97h.18l18.57 63.97h4.73l19.39-67.59h-4.46m26.19 0l-27.15 67.59h4.44l8.61-21.68h32.38l8.49 21.68h4.46l-26.7-67.59zm-12.78 42.31l15.06-38.23h.19l14.48 38.23zm87.49-7.36v-.21c9-1.5 14.49-8.23 14.49-17.31 0-13.06-9.57-17.43-21.38-17.43h-28.21v67.59h4.17v-30.75h24c11.81 0 15 5.3 15.89 11.84s-.76 14.26 1.78 18.91h4.65c-2.74-3.59-1.6-11.17-2.27-18.17s-3.09-13.35-13.12-14.47zM209.78 204v-29.58h24c9.08 0 17.23 3.86 17.23 14.08 0 10.89-7.4 15.54-17.23 15.54zm78.46-33.2H266.1v67.59H288c21.67 0 31.41-14.76 31.41-33.88.05-17.14-7.04-33.71-31.17-33.71zm.19 64h-18.18v-60.38h17.32c10 0 27.73 2.47 27.73 30.1 0 23.37-14.3 30.28-26.87 30.28zm67.88-32.56c-11.44-2.36-23-4.16-23-15 0-11.15 10.88-14.4 18.52-14.4 12.51 0 21.23 5.78 21.68 17.34h4.18c-.66-14.87-11.75-20.91-25.86-20.91-10.67 0-22.69 5-22.69 18s11.54 15.61 23 18 23.09 4.36 23.09 15.8c0 11.73-11.46 15.41-19.58 15.41-13.34 0-25.18-5.58-24.32-20.32h-4.17C327 233.46 339.85 240 355.64 240c10.3 0 23.74-5 23.74-19 0-13.47-11.52-16.41-23.07-18.76zM0 71.12h378.07v1.12H0zm0 82.15h378.07v1.12H0z"/></svg>