<svg data-name="Layer 1" xmlns="http://www.w3.org/2000/svg" viewBox="0 0 48 48"><path d="M24 0a24 24 0 1 0 24 24A24 24 0 0 0 24 0zm15.87 11.07a20.46 20.46 0 0 1 4.63 12.77 47.63 47.63 0 0 0-14.28-.66c-.55-1.36-1.08-2.56-1.8-4 7.58-3.09 11-7.5 11.45-8.08zM37.59 8.7c-.37.52-3.46 4.67-10.74 7.4a110.89 110.89 0 0 0-7.65-12 20.41 20.41 0 0 1 18.39 4.6zM15.28 5.48a126.93 126.93 0 0 1 7.6 11.86 76.66 76.66 0 0 1-18.95 2.49A20.57 20.57 0 0 1 15.28 5.48zM3.5 24v-.63a75.57 75.57 0 0 0 21.07-2.91 61.33 61.33 0 0 1 1.66 3.48c-7.41 2.08-14.15 8.08-17.47 13.77A20.45 20.45 0 0 1 3.5 24zm7.92 16.2c2.14-4.37 8-10 16.21-12.84A85.73 85.73 0 0 1 32 42.9a20.44 20.44 0 0 1-20.58-2.7zm24 .83a88.45 88.45 0 0 0-4-14.62 29.87 29.87 0 0 1 12.77.88A20.53 20.53 0 0 1 35.45 41z"/></svg>