<svg xmlns="http://www.w3.org/2000/svg" viewBox="0 0 48 47">
  <title>Github</title>
  <path d="M24,0a24.11,24.11,0,0,0-7.58,47c1.2.22,1.64-.52,1.64-1.16s0-2.09,0-4.1c-6.68,1.46-8.08-3.23-8.08-3.23-1.09-2.78-2.66-3.52-2.66-3.52-2.18-1.49.16-1.46.16-1.46A5,5,0,0,1,11.11,36c2.14,3.68,5.62,2.62,7,2a5.16,5.16,0,0,1,1.52-3.22c-5.33-.61-10.93-2.68-10.93-11.91a9.33,9.33,0,0,1,2.47-6.47A8.7,8.7,0,0,1,11.39,10s2-.65,6.6,2.47a22.66,22.66,0,0,1,12,0C34.59,9.35,36.6,10,36.6,10a8.69,8.69,0,0,1,.24,6.38,9.32,9.32,0,0,1,2.47,6.47c0,9.26-5.61,11.29-11,11.89A5.76,5.76,0,0,1,30,39.19c0,3.22,0,5.82,0,6.61s.43,1.39,1.65,1.16A24.11,24.11,0,0,0,24,0Z" style="fill-rule: evenodd"/>
</svg>
