<svg viewBox="0 0 48 48">
		<title>Instagram</title>
		<path d="M24 4.32c6.41 0 7.17 0 9.7.14a13.28 13.28 0 0 1 4.46.83 7.44 7.44 0 0 1 2.76 1.8 7.44 7.44 0 0 1 1.8 2.76 13.28 13.28 0 0 1 .83 4.46c.12 2.53.14 3.29.14 9.7s0 7.17-.14 9.7a13.28 13.28 0 0 1-.83 4.46 7.95 7.95 0 0 1-4.55 4.55 13.28 13.28 0 0 1-4.46.83c-2.53.12-3.29.14-9.7.14s-7.17 0-9.7-.14a13.28 13.28 0 0 1-4.46-.83 7.44 7.44 0 0 1-2.76-1.8 7.44 7.44 0 0 1-1.8-2.76 13.28 13.28 0 0 1-.83-4.46c-.12-2.53-.14-3.29-.14-9.7s0-7.17.14-9.7a13.28 13.28 0 0 1 .83-4.46 7.44 7.44 0 0 1 1.8-2.76 7.44 7.44 0 0 1 2.76-1.8 13.28 13.28 0 0 1 4.46-.83c2.53-.12 3.29-.14 9.7-.14M24 0c-6.52 0-7.34 0-9.9.14a17.62 17.62 0 0 0-5.82 1.12A11.76 11.76 0 0 0 4 4a11.76 11.76 0 0 0-2.74 4.28A17.62 17.62 0 0 0 .14 14.1C0 16.66 0 17.48 0 24s0 7.34.14 9.9a17.62 17.62 0 0 0 1.12 5.83A11.76 11.76 0 0 0 4 44a11.76 11.76 0 0 0 4.25 2.77 17.62 17.62 0 0 0 5.83 1.12c2.56.12 3.38.14 9.9.14s7.34 0 9.9-.14a17.62 17.62 0 0 0 5.83-1.12 12.27 12.27 0 0 0 7-7 17.62 17.62 0 0 0 1.12-5.83c.17-2.6.17-3.42.17-9.94s0-7.34-.14-9.9a17.62 17.62 0 0 0-1.12-5.83A11.76 11.76 0 0 0 44 4a11.76 11.76 0 0 0-4.25-2.77A17.62 17.62 0 0 0 33.9.14C31.34 0 30.52 0 24 0z" />
		<path d="M24 11.68A12.32 12.32 0 1 0 36.32 24 12.32 12.32 0 0 0 24 11.68zM24 32a8 8 0 1 1 8-8 8 8 0 0 1-8 8z" />
		<circle cx="36.81" cy="11.19" r="2.88" />
</svg>
