<svg xmlns="http://www.w3.org/2000/svg" viewBox="0 0 36 36"><title>link-external</title><path d="M31.09 18.28a1.46 1.46 0 0 0-1.48 1.47 13.27 13.27 0 0 1-13.3 13.31A13.41 13.41 0 0 1 2.94 19.7 13.27 13.27 0 0 1 16.25 6.39a1.48 1.48 0 0 0 0-2.95A16.28 16.28 0 1 0 16.32 36a16.2 16.2 0 0 0 16.24-16.25 1.47 1.47 0 0 0-1.47-1.47z"/><path d="M15.43 20.57a1.48 1.48 0 0 0 2.09 0L33 5.14l-.19 7.21a1.49 1.49 0 0 0 1.47 1.49 1.47 1.47 0 0 0 1.48-1.4L36 1.52A1.52 1.52 0 0 0 34.48 0L23.57.28a1.48 1.48 0 0 0 .09 3l7.21-.18-15.44 15.39a1.46 1.46 0 0 0 0 2.08z"/></svg>