<svg xmlns="http://www.w3.org/2000/svg" viewBox="0 0 48 39">
  <title>Twitter</title>
  <path d="M15.1,39c18.11,0,28-15,28-28,0-.43,0-.85,0-1.27A20,20,0,0,0,48,4.61a19.66,19.66,0,0,1-5.66,1.55A9.88,9.88,0,0,0,46.67.71,19.74,19.74,0,0,1,40.42,3.1a9.86,9.86,0,0,0-16.78,9A28,28,0,0,1,3.34,1.8a9.86,9.86,0,0,0,3,13.15,9.77,9.77,0,0,1-4.47-1.23v.12a9.85,9.85,0,0,0,7.9,9.65,9.83,9.83,0,0,1-4.45.17,9.86,9.86,0,0,0,9.2,6.84A19.76,19.76,0,0,1,2.34,34.72,20,20,0,0,1,0,34.58,27.88,27.88,0,0,0,15.1,39"/>
</svg>
